# xmcd
#
# Track frame offsets:
#	150
#	16385
#	28355
#	36177
#	50212
#	59505
#	69195
#	82690
#	92435
#	105787
#
# Disc length: 1588 seconds
#
# Revision: 0
# Processed by: cddbd v1.5.2PL0 Copyright (c) Steve Scherf et al.
# Submitted via: audiograbber 1.83.01
#
DISCID=7406320a
DTITLE=Leo Dan - Tesoros De Coleccion 3.2
DYEAR=1985
DGENRE=Ranchera
TTITLE0=Toquen Mariachis Canten
TTITLE1=La Reina De Acapulco
TTITLE2=El Consejo
TTITLE3=Dulcemente Me Recuerdas
TTITLE4=Inventame Cariño
TTITLE5=Mi Pagina Mas Triste
TTITLE6=Mi Peor Fracaso
TTITLE7=No Se Conforman
TTITLE8=El Radio Esta Tocando Tu Cancion
TTITLE9=Esclavo Y Amo
EXTD=MS®
EXTT0=MS®
EXTT1=
EXTT2=
EXTT3=
EXTT4=
EXTT5=
EXTT6=
EXTT7=
EXTT8=
EXTT9=
PLAYORDER=
